<?xml version="1.0" encoding="utf-8"?>
<!-- Generator: Adobe Illustrator 16.0.0, SVG Export Plug-In . SVG Version: 6.00 Build 0)  -->
<!DOCTYPE svg PUBLIC "-//W3C//DTD SVG 1.1//EN" "http://www.w3.org/Graphics/SVG/1.1/DTD/svg11.dtd">
<svg version="1.1" id="Layer_1" xmlns="http://www.w3.org/2000/svg" xmlns:xlink="http://www.w3.org/1999/xlink" x="0px" y="0px"
	 width="300px" height="300px" viewBox="0 0 300 300" enable-background="new 0 0 300 300" xml:space="preserve">
<path d="M22.76,37.152c-2.208-5.069-0.557-15.611,12.266-18.399c12.824-2.789,27.877,6.132,29.551,18.399
	c1.672,12.266-2.231,25.089,0,30.665c2.23,5.576,27.877,63.003,48.507,78.616c20.629,15.611,29.549,6.133,32.337,0
	c2.789-6.133,15.055-78.058,12.267-98.13s-9.388-14.668-7.826-27.492c1.562-12.823,12.845-14.324,22.323-10.979
	s20.629,17.283,18.957,28.993c-1.673,11.708-8.363,10.036-8.921,16.727c-0.558,6.69-8.363,86.602-1.115,111.044
	c7.248,24.441,32.896,7.157,32.896,7.157s40.699-28.993,44.604-42.932c3.903-13.938,6.912-22.554,10.482-24.515
	c3.939-2.163,21.079-10.033,27.389,11.46c6.31,21.494-8.211,25.817-11.397,27.817s-12.966,0.934-50.648,66.123
	c-37.683,65.188-43.458,57.214-66.289,58.313c-22.831,1.099-130.38-33.557-138.356-35.481c-7.976-1.927-13.202-2.75-17.878-5.776
	C7.231,225.732,0.63,218.032,1.18,206.479c0.55-11.553,11.894-16.364,21.375-12.892c6.927,2.537,15.665,14.847,18.417,17.049
	c2.751,2.202,24.903,14.857,39.972,11.922c14.112-2.75,13.757-24.33,13.207-30.932c-0.549-6.603-1.65-28.057-19.254-63.814
	S31.216,56.563,22.76,37.152z"/>
</svg>
